***************************************************************

[IMG]http://www.hotimg.org/images/67363952943939111394.png[/IMG]

***************************************************************

[IMG]http://www.hotimg.org/images/73182957889474909061.jpg[/IMG]

***************************************************************

FILM TITLE: The Sorcerer and the White Snake (2011) Bai she chuan shuo (original title)

***************************************************************

Genre:  Action | Fantasy   

Release: 28 September 2011 (China)

Director: Siu-Tung Ching

Writer: 

Stars:  Jet Li, Shengyi Huang and Raymond Lam

Country: China | Hong Kong 

Language: Mandarin

Plot:
fantasy film based on an old Chinese legend about an herbalist 
who falls in love with a thousand-year-old White Snake disguised 
as a woman.

IMDB Rating: 5.7/10 from 1,754 users 
 
http://www.imdb.com/title/tt1857913/

****************************************************************

[url=http://www.imagezon3.com/images/M4W3.png][img]http://www.imagezon3.com/images/thumbs/M4W3.png[/img][/url]
[url=http://www.imagezon3.com/images/kHw8z.png][img]http://www.imagezon3.com/images/thumbs/kHw8z.png[/img][/url]
[url=http://www.imagezon3.com/images/BqO2a.png][img]http://www.imagezon3.com/images/thumbs/BqO2a.png[/img][/url]
[url=http://www.imagezon3.com/images/K1tI.png][img]http://www.imagezon3.com/images/thumbs/K1tI.png[/img][/url]
[url=http://www.imagezon3.com/images/RS2UJ.png][img]http://www.imagezon3.com/images/thumbs/RS2UJ.png[/img][/url]

****************************************************************

General
Unique ID                        : 178002301073097108109356904304196016889 (0x85E9FF05B1F4EBDAAE1A5794787D5AF9)
Complete name                    : The Sorcerer And The White Snake 2011 720p BDRip x264 ac3 sub (mkv) [GREYSHADOW].mkv
Format                           : Matroska
Format version                   : Version 2
File size                        : 3.67 GiB
Duration                         : 1h 42mn
Overall bit rate                 : 5139 Kbps
Encoded date                     : UTC 2012-02-26 18:35:23
Writing application              : mkvmerge v5.3.0 ('I could have danced') built on Feb  9 2012 10:38:07
Writing library                  : libebml v1.2.3 + libmatroska v1.3.0

Video
ID                               : 1
Format                           : AVC
Format/Info                      : Advanced Video Codec
Format profile                   : High@L4.1
Format settings, CABAC           : Yes
Format settings, ReFrames        : 12 frames
Muxing mode                      : Header stripping
Codec ID                         : V_MPEG4/ISO/AVC
Duration                         : 1h 42mn
Bit rate                         : 4500 Kbps
Width                            : 1280 pixels
Height                           : 528 pixels
Display aspect ratio             : 2.40:1
Frame rate                       : 24.000 fps
Color space                      : YUV
Chroma subsampling               : 4:2:0
Bit depth                        : 8 bits
Scan type                        : Progressive
Bits/(Pixel*Frame)               : 0.277
Stream size                      : 3.14 GiB (86%)
Title                            : AVC MPEG4 Video
Writing library                  : x264 core 120 r2164 da19765
Language                         : Chinese
Color primaries                  : BT.709-5, BT.1361, IEC 61966-2-4, SMPTE RP177
Transfer characteristics         : BT.709-5, BT.1361
Matrix coefficients              : BT.709-5, BT.1361, IEC 61966-2-4 709, SMPTE RP177

Audio
ID                               : 2
Format                           : AC-3
Format/Info                      : Audio Coding 3
Mode extension                   : CM (complete main)
Muxing mode                      : Header stripping
Codec ID                         : A_AC3
Duration                         : 1h 42mn
Bit rate mode                    : Constant
Bit rate                         : 640 Kbps
Channel(s)                       : 6 channels
Channel positions                : Front: L C R, Side: L R, LFE
Sampling rate                    : 48.0 KHz
Bit depth                        : 16 bits
Compression mode                 : Lossy
Stream size                      : 468 MiB (12%)
Title                            : AC3 5.1 640 kbps
Language                         : Chinese

Text
ID                               : 3
Format                           : UTF-8
Codec ID                         : S_TEXT/UTF8
Codec ID/Info                    : UTF-8 Plain Text
Title                            : English Subtitle sup to srt
Language                         : English

****************************************************************

Video Source: The Sorcerer And The Whitesnake 2011 BluRay 1080p AVC DTS-HD MA5.1-CHDBits

Thanks: chdbits.org

****************************************************************

I provide a small sample, so please download this to check your 
compatibility first if you are unsure.

****************************************************************

I am providing tutorials here :- 
http://tutorials4all.freeforums.org/index.php?sid=fb109f91dedb2901c4d0b39625c431f7
This is for opening my mkv encodes, remuxing to Bluray for PS3 or mkv or mp4 with 
additional or selected audio or subtitles which I will now start supplying, so if your
fed up finding the right encode to match your player - DO IT YOURSELF - it's simples.

I allow transfer of my encodes to any site, just give me credit (Thanks: GREYSHADOW)

****************************************************************